<?xml version="1.0" encoding="UTF-8"?>
<svg id="_레이어_1" data-name="레이어 1" xmlns="http://www.w3.org/2000/svg" viewBox="0 0 1467.98 603.01">
  <defs>
    <style>
      .cls-1 {
        fill: #e2daca;
        stroke: #e2daca;
        stroke-miterlimit: 10;
        stroke-width: 4.22px;
      }
    </style>
  </defs>
  <path class="cls-1" d="M255.91,179.7h0c-3.3-3.9-8.36-5.87-15.06-5.87H101.18c-4.9,0-8.88.8-12.18,2.44-2.29,1.15-4.25,2.21-6.27,3.44l-39.73,27.04c-2.99,2.03-4.87,5.27-5.15,8.9-.28,3.57,1.05,7.01,3.64,9.44,3.7,3.47,8.02,5.5,12.82,6.01,4.46.49,8.95-.07,13.38-1.68-.01.54-.03,1.14-.06,1.81-.05,1.2-.08,2.35-.08,3.38v72.28c0,30.62,60.43,47.68,96.46,55.13,11.91,2.46,23.82,3.78,35.4,3.93,2.29.03,4.48.05,6.56.05,8.2,0,14.89-.26,19.89-.76,12.43-1.37,21-4.18,26.19-8.58,5.71-4.83,8.73-11.04,8.73-17.96l-.44-146.71c0-4.68-1.49-8.81-4.43-12.3ZM216.92,210.33v116.82c-4.07.87-9.39,1.48-15.88,1.83-10.26.55-20.83,0-31.43-1.69-11.29-1.69-22.95-4.49-34.67-8.3-6.44-2.09-12.18-4.44-17.08-6.96-3.99-2.06-6.47-6.22-6.47-10.85v-90.57l105.53-.28Z"/>
  <path class="cls-1" d="M441.74,256.94l-1.14-.47c-4.43-1.46-8.74-.85-12.15,1.71-1.02.77-1.91,1.41-3.01,2.17l-.98.82c-3.66,3.65-10.84,6.43-20.78,8.02-11.39,1.84-23.95,2.76-37.33,2.76h-4.81V105.82c0-7.75-3.44-12.1-6.34-14.39-6.72-5.25-14.87-5.64-21.79-1.05l-57.6,38.06,6.43,7.28c9.32,10.56,21.19,13.05,35.45,7.39v369.21l5.77,1.92c3.12,1.04,6.64,1.57,10.47,1.57.61,0,1.22-.01,1.83-.04,4.8-.2,9.17-1.32,13.57-3.54,3.16-1.81,5.95-4.45,8.31-7.86,2.59-3.79,3.9-7.77,3.9-11.84v-184.15l70.66.79c7.27,0,11.38-3.09,13.56-5.69,2.8-3.37,4.17-8.31,4.17-15.13v-16.8c0-1.15-.16-2.5-.58-4.83-.77-4.24-3.47-7.72-7.61-9.79Z"/>
  <path class="cls-1" d="M513.03,300.95c1.1,0,2.29-.09,3.6-.29,16.97-2.73,35.25-7.62,54.35-14.54,19.17-6.94,38.06-16.12,56.14-27.27,17.01-10.48,32.38-23.08,45.9-37.35.59,2.73,2.81,8.75,11.34,10.63,10.69,1.97,21.19,4.76,31.2,8.28,10.17,3.58,19.97,7.58,29.21,11.89,9.94,4.43,18.42,9.36,25.2,14.65,8.59,6.7,9.98,9.48,9.99,9.48h0c1.63,4.91,3.4,9.1,5.25,12.45,3.76,6.84,9.17,8.78,13.15,9.21.41.04.83.05,1.26.05,5.1,0,12.23-2.27,17.22-13.11,3.16-6.83,4.76-13.15,4.76-18.78,0-4.9-1.99-9.86-5.99-15.07-3.7-5.18-11.01-11.03-22.99-18.42-11.23-6.92-23.45-12.6-36.34-16.91-9.41-3.34-20.02-6.26-31.54-8.69-11.45-2.4-23.43-4.22-35.57-5.41,6.77-9.99,12.28-20.77,16.46-32.24h30.2c15.07,0,26.4-.07,34.62-.22,8.34-.14,14.37-.3,18.08-.45,5.63-.22,7.77-.59,9.01-.9,1.89-.47,3.3-.99,4.96-1.84,3.53-2.13,5.81-5.28,6.59-9.15.4-2.06.6-3.89.6-5.6v-17.23c0-1.39-.18-3.01-.58-5.28-.85-4.66-4.08-8.24-8.96-9.87-6.75-2.04-13.09.55-16.57,6.73-.05.04-.26.2-.48.31-7.28,3.39-15.87,5.43-25.53,6.08-10.49.73-20.18,1.09-28.81,1.09h-130.38c-17.98,0-30.97.07-38.61.22-8.01.16-12.67.31-14.69.47-3.21.27-5.83,1.07-7.59,2.26-3.55,2.12-5.91,5.49-6.64,9.49-.38,2.1-.58,4.32-.58,6.6v15.91c0,1.43.19,3.15.58,5.26.85,4.68,4.03,8.26,8.99,9.9l.74.19c3.48.71,6.81.24,9.62-1.38,2.15-1.23,3.93-2.87,5.29-4.89.07-.1.23-.31.54-.57.08-.07.86-.69,2.98-1.91,4.49-2.37,11.07-3.83,19.55-4.35,9.53-.57,18.88-.87,27.78-.87h47.58c-5.2,12.26-12.41,23.37-21.5,33.08-12.07,12.92-25.66,23.94-40.38,32.77-14.96,8.98-29.88,16.26-44.35,21.65-14.57,5.43-27.13,9.34-37.54,11.65-6.38,1.59-10.86,5.56-12.64,11.19-1.72,5.48-.73,10.92,2.79,15.34,2.11,2.63,6.04,5.77,12.73,5.77Z"/>
  <path class="cls-1" d="M864.78,301.67c-4.16-1.6-8.55-1.03-12.03,1.58-1.53,1.14-2.7,2.13-3.86,3.32l-.76.96c-.2.29-.48.61-1.29.96-5.18,2.33-11.36,4.05-18.35,5.1-7.5,1.13-14.84,1.93-21.79,2.35-7.08.43-13.08.65-17.83.65h-248.38c-15.17,0-27.27.07-35.95.22-8.62.15-14.93.31-18.95.45-5.98.23-8.08.57-9.47.91-1.81.45-3.19.93-4.34,1.51l-1.52.97c-3.02,2.41-4.98,5.5-5.66,8.9-.41,2.02-.61,4.17-.61,6.54v17.23c0,1.44.19,3.17.58,5.26.85,4.69,4.04,8.28,9.06,9.92l.94.22c3.86.64,7.33.03,10.29-1.82,2.36-1.48,3.95-3.01,4.81-4.54.16-.24.44-.55,1.11-.84,5.57-2.38,11.93-4.2,18.89-5.4,7.24-1.25,14.46-2.03,21.43-2.32,7.49-.29,13.31-.43,17.79-.43h96.3v152.34l5.78,1.92c3.12,1.04,6.64,1.56,10.46,1.56.61,0,1.22-.01,1.84-.04,4.79-.2,9.16-1.32,13.56-3.54,3.16-1.81,5.95-4.45,8.3-7.86,2.59-3.79,3.9-7.77,3.9-11.84v-132.54h108.24c15.9,0,27.73-.07,36.15-.22,8.78-.14,15.18-.29,19.16-.45,6.03-.21,8.22-.59,9.43-.89,2.57-.62,4.35-1.46,5.64-2.62,2.97-2.42,4.82-5.37,5.51-8.8.4-2.01.6-4.2.6-6.51v-17.23c0-1.41-.18-3.09-.58-5.28-.84-4.55-3.97-8.17-8.4-9.69Z"/>
  <path class="cls-1" d="M1429.6,309.16v-.02c-.87-4.64-3.97-8.19-8.31-9.64-4.21-1.66-8.64-1.09-12.16,1.56-1.47,1.11-2.65,2.1-3.52,2.96l-1.08,1.31c-.19.29-.48.61-1.29.96-5.2,2.34-11.38,4.05-18.36,5.1-7.49,1.13-14.82,1.93-21.79,2.35-7.08.43-13.08.65-17.83.65h-95.41v-31.38c13.44-2.05,26.13-6.02,37.76-11.84,14.16-7.07,25.76-16.89,34.49-29.18,8.98-12.64,13.37-27.84,13.05-45.11,0-10.83-2.44-20.7-7.27-29.33-4.6-8.21-10.09-15.02-16.31-20.25-6.3-5.26-12.49-8.57-18.39-9.85-.07-.02-.15-.05-.22-.07l7.16-7.16-4.07-5.81c-2.06-2.93-6.36-7.18-21.53-14.11-11.09-5.05-25.21-7.61-41.95-7.61-20.67,0-39.63,4.24-56.37,12.6-16.83,8.42-30.25,19.76-39.86,33.7-9.79,14.19-14.75,29.73-14.75,46.27.32,16.94,4.99,32.03,13.88,44.87,8.71,12.59,20.31,22.65,34.48,29.89,11.62,5.94,24.18,10.1,37.39,12.38v31.98h-110.44c-15.34,0-27.43.07-35.94.22-8.63.15-14.94.3-18.95.45-6.03.22-8.17.58-9.48.91-1.78.45-3.2.94-4.35,1.52l-1.5.96c-3.07,2.45-4.98,5.46-5.68,8.95-.4,2.02-.6,4.21-.6,6.48v17.24c0,1.41.18,3.08.58,5.25.84,4.66,4.01,8.24,9.04,9.92l.97.23c.98.16,1.93.24,2.85.24,2.74,0,5.25-.71,7.45-2.09,2.37-1.49,3.96-3.03,4.79-4.52.18-.25.45-.55,1.12-.84,5.54-2.38,11.9-4.2,18.88-5.41,7.27-1.25,14.48-2.03,21.43-2.31,7.61-.29,13.43-.43,17.79-.43h248.38c15.67,0,27.5-.07,36.16-.22,8.77-.14,15.17-.3,19.17-.45,6.03-.22,8.17-.58,9.47-.9,2.56-.64,4.33-1.48,5.59-2.61,2.96-2.41,4.81-5.37,5.51-8.81.4-2.02.6-4.2.6-6.5v-17.24c0-1.4-.18-3.07-.58-5.27ZM1273.07,141.16c-6.59,4.27-11.14,9.86-13.5,16.56-2.09,5.72-1.95,10.66.41,14.67,2.07,3.54,5.12,6.06,9.19,7.39l1.11.25c2.5.36,4.72.32,6.74-.14,3.44,2.05,5.97,4.97,7.74,8.92,2,4.5,3.02,9.14,3.02,13.8,0,13.24-5.01,24.2-15.33,33.51-10.43,9.4-24.29,14.17-41.19,14.17-18.93,0-34.33-5.34-45.77-15.89-11.37-10.47-16.76-23.54-16.51-39.88.51-13.89,5.46-25.53,15.11-35.56,9.83-10.23,23.5-17.38,40.63-21.26,6.83-1.55,14.01-2.32,21.53-2.32,9.59,0,19.72,1.26,30.31,3.77-1.15.58-2.32,1.25-3.49,2.01Z"/>
  <path class="cls-1" d="M1372.19,463.22h0c-4.17-5.67-7.96-9.83-11.68-12.8-5.94-4.47-12.97-5.3-19.68-2.42-3.63,1.45-7.86,3.95-12.93,7.67-4.94,3.63-7.27,4.19-7.28,4.2-17.02,2.51-34.95,2.22-53.27-.86-18.6-3.13-37.16-8.53-55.17-16.04-18.01-7.51-35.12-17.15-50.87-28.64-15.7-11.46-29.65-24.54-41.4-38.81-5.76-7.38-12.8-6.75-15.56-6.14-5.1,1.14-9.17,4.29-11.47,8.89-1.71,3.41-2.89,9.04,1.34,16.75,14.35,22.29,32.32,41.34,53.41,56.63,20.9,15.15,43.88,27.06,68.3,35.41,24.31,8.31,49.53,13.29,74.94,14.8,5.98.35,11.98.54,17.83.54,19.08,0,37.76-1.87,55.5-5.55,4.01-.81,7.19-1.99,9.72-3.6,2.06-1.32,6.74-5.27,5.84-13.4-.44-4.85-2.92-10.28-7.57-16.61Z"/>
  <path class="cls-1" d="M948.4,176.16c-16.18,0-29.35,13.17-29.35,29.35s13.17,29.35,29.35,29.35,29.35-13.16,29.35-29.35-13.17-29.35-29.35-29.35Z"/>
  <path class="cls-1" d="M948.4,330.52c-16.18,0-29.35,13.16-29.35,29.35s13.17,29.35,29.35,29.35,29.35-13.17,29.35-29.35-13.17-29.35-29.35-29.35Z"/>
</svg>